<svg xmlns="http://www.w3.org/2000/svg" xmlns:xlink="http://www.w3.org/1999/xlink" preserveAspectRatio="xMidYMid" width="470" height="470" viewBox="0 0 470 470">
  <defs>
    <linearGradient id="paint0_linear" x1="0" y1="0" x2="1" y2="1" gradientUnits="objectBoundingBox">
      <stop offset="0.259336" stop-color="#FFDB6E" />
      <stop offset="1" stop-color="#FFBC5E" />
    </linearGradient>
    <style>
      .cls-1 {
        fill: url(#paint0_linear);
        fill-rule: evenodd;
      }
    </style>
  </defs>
  <path d="M437.500,267.500 C422.161,267.500 409.279,256.815 405.883,242.500 L377.500,242.500 C373.358,242.500 370.000,239.143 370.000,235.000 C370.000,230.857 373.358,227.500 377.500,227.500 L405.883,227.500 C409.279,213.185 422.161,202.500 437.500,202.500 C455.420,202.500 470.000,217.079 470.000,235.000 C470.000,252.921 455.420,267.500 437.500,267.500 ZM437.500,217.500 C427.851,217.500 420.000,225.351 420.000,235.000 C420.000,244.649 427.851,252.500 437.500,252.500 C447.149,252.500 455.000,244.649 455.000,235.000 C455.000,225.351 447.149,217.500 437.500,217.500 ZM378.189,124.311 C372.067,124.311 366.207,122.623 361.129,119.478 L341.066,139.541 C339.602,141.005 337.682,141.737 335.763,141.737 C333.843,141.737 331.924,141.005 330.460,139.541 C327.531,136.612 327.531,131.864 330.460,128.934 L350.530,108.864 C342.809,96.341 344.363,79.677 355.208,68.831 C361.347,62.692 369.508,59.311 378.189,59.311 C386.870,59.311 395.031,62.692 401.170,68.830 C407.309,74.969 410.689,83.130 410.689,91.811 C410.689,100.492 407.309,108.653 401.170,114.792 C395.032,120.931 386.870,124.311 378.189,124.311 ZM390.564,79.436 C387.258,76.131 382.864,74.311 378.189,74.311 C373.514,74.311 369.119,76.131 365.814,79.437 C358.992,86.260 358.992,97.362 365.814,104.185 C369.120,107.491 373.514,109.311 378.189,109.311 C382.864,109.311 387.258,107.491 390.564,104.186 C393.869,100.880 395.689,96.486 395.689,91.811 C395.689,87.137 393.869,82.742 390.564,79.436 ZM315.025,324.338 C314.620,324.797 314.169,325.189 313.688,325.524 C292.606,343.874 265.079,355.000 235.000,355.000 C204.916,355.000 177.384,343.870 156.300,325.514 C155.824,325.180 155.376,324.793 154.972,324.335 C130.453,302.348 115.000,270.447 115.000,235.000 C115.000,199.553 130.453,167.652 154.974,145.662 C155.376,145.206 155.825,144.818 156.302,144.484 C177.386,126.129 204.917,115.000 235.000,115.000 C265.085,115.000 292.617,126.131 313.701,144.487 C314.176,144.820 314.624,145.207 315.028,145.665 C339.547,167.652 355.000,199.553 355.000,235.000 C355.000,270.447 339.547,302.348 315.025,324.338 ZM197.933,333.237 C193.230,327.005 189.017,319.590 185.402,311.209 C180.943,313.601 176.648,316.322 172.551,319.357 C180.270,325.086 188.800,329.779 197.933,333.237 ZM160.932,309.351 C166.963,304.613 173.398,300.486 180.149,297.015 C175.108,281.006 171.998,262.484 171.372,242.500 L130.271,242.500 C132.117,268.536 143.495,291.980 160.932,309.351 ZM130.270,227.500 L171.371,227.500 C171.997,207.516 175.107,188.995 180.148,172.985 C173.398,169.514 166.963,165.386 160.931,160.649 C143.495,178.020 132.117,201.464 130.270,227.500 ZM172.550,150.643 C176.647,153.678 180.942,156.400 185.401,158.791 C189.017,150.410 193.230,142.995 197.932,136.763 C188.799,140.221 180.269,144.914 172.550,150.643 Z" class="cls-1"/>
</svg>
